<mxfile host="Electron" agent="Mozilla/5.0 (X11; Linux x86_64) AppleWebKit/537.36 (KHTML, like Gecko) draw.io/26.1.1 Chrome/132.0.6834.210 Electron/34.3.3 Safari/537.36" version="26.1.1">
  <diagram name="Page-1" id="eqlcOwBqwHBR_jemvwaR">
    <mxGraphModel dx="3010" dy="2404" grid="1" gridSize="10" guides="1" tooltips="1" connect="1" arrows="1" fold="1" page="1" pageScale="1" pageWidth="850" pageHeight="1100" math="0" shadow="0">
      <root>
        <mxCell id="0" />
        <mxCell id="1" parent="0" />
        <mxCell id="AIgJUo8wVXetIswRmh0A-11" value="" style="rounded=1;whiteSpace=wrap;html=1;arcSize=0;strokeColor=none;strokeWidth=5.1181;fillColor=#FFFFFF;gradientColor=none;gradientDirection=north;" vertex="1" parent="1">
          <mxGeometry x="-770" y="359.2596744475147" width="1200" height="510" as="geometry" />
        </mxCell>
        <mxCell id="AIgJUo8wVXetIswRmh0A-17" value="" style="group" vertex="1" connectable="0" parent="1">
          <mxGeometry x="-685.4334987062748" y="480.0002029744525" width="1030.8669974125496" height="268.5189429461244" as="geometry" />
        </mxCell>
        <mxCell id="AIgJUo8wVXetIswRmh0A-3" value="" style="shape=image;verticalLabelPosition=bottom;labelBackgroundColor=default;verticalAlign=top;aspect=fixed;imageAspect=0;image=https://cdn.freebiesupply.com/logos/large/2x/visual-studio-code-logo-png-transparent.png;" vertex="1" parent="AIgJUo8wVXetIswRmh0A-17">
          <mxGeometry y="23.349473299663032" width="220.71089636506446" height="221.81999634679843" as="geometry" />
        </mxCell>
        <mxCell id="AIgJUo8wVXetIswRmh0A-5" value="" style="shape=image;verticalLabelPosition=bottom;labelBackgroundColor=default;verticalAlign=top;aspect=fixed;imageAspect=0;image=https://registry.npmmirror.com/@lobehub/icons-static-png/latest/files/light/mcp.png;" vertex="1" parent="AIgJUo8wVXetIswRmh0A-17">
          <mxGeometry x="370.99577909090067" width="268.51894294612447" height="268.51894294612447" as="geometry" />
        </mxCell>
        <mxCell id="AIgJUo8wVXetIswRmh0A-9" value="" style="shape=cross;whiteSpace=wrap;html=1;size=0.375;fillColor=light-dark(#05988a, #ededed);gradientColor=none;gradientDirection=east;opacity=70;" vertex="1" parent="AIgJUo8wVXetIswRmh0A-17">
          <mxGeometry x="655.9957790909007" y="87.56011892483116" width="93.39789319865199" height="93.39870509646224" as="geometry" />
        </mxCell>
        <mxCell id="AIgJUo8wVXetIswRmh0A-10" value="" style="shape=cross;whiteSpace=wrap;html=1;size=0.375;fillColor=light-dark(#0179cb, #ededed);gradientColor=none;gradientDirection=east;opacity=70;" vertex="1" parent="AIgJUo8wVXetIswRmh0A-17">
          <mxGeometry x="260.99577909090067" y="87.56011892483116" width="93.39789319865199" height="93.39870509646224" as="geometry" />
        </mxCell>
        <mxCell id="AIgJUo8wVXetIswRmh0A-14" value="" style="shape=image;verticalLabelPosition=bottom;labelBackgroundColor=default;verticalAlign=top;aspect=fixed;imageAspect=0;image=https://seeklogo.com/images/F/fastapi-logo-541BAA112F-seeklogo.com.png;" vertex="1" parent="AIgJUo8wVXetIswRmh0A-17">
          <mxGeometry x="769.9957790909007" y="3.823862312237793" width="260.871218321649" height="260.871218321649" as="geometry" />
        </mxCell>
      </root>
    </mxGraphModel>
  </diagram>
</mxfile>
